<svg id="Layer_1" data-name="Layer 1" xmlns="http://www.w3.org/2000/svg" viewBox="0 0 369.79 531.25"><defs><style>.cls-1{fill:#2d2d2d;}.cls-2{fill:#6b6b6b;}.cls-3{fill:#545454;}.cls-4{fill:#494949;}</style></defs><path class="cls-1" d="M187.06,44.68,213.22,3.1c54.5,10.62,125.26,32,145.51,122.51,12.64,56.54-13.37,150.28-20.82,187.33-3.61,18-3.31,29.61-3.41,44.93H284.69Z"/><path class="cls-2" d="M164,52s-25.34,16-40.34,21.22S97.47,89.1,88.82,108.7L22,169.82c-15.37,13.44-18,31.78-5.9,49.66s43.68,27.71,57.15,19.3l42.47-29.37,52.65,7.24L74.8,352.44C59.24,376,62.42,439,62.42,439H288.05s-4-93.53,0-123S338,185.92,298.18,115.57s-80.4-72.08-80.4-72.08S199.48,2.32,163.49,0Z"/><path class="cls-3" d="M288.05,316c-4,29.41,0,122.93,0,122.93H184.89V375.69l56.3-180.44c3.68-17.33,5.67-50.5-.73-71.56L163.49,0c35.95,2.72,54.29,43.49,54.29,43.49s40.6,1.72,80.4,72.08S292.08,286.62,288.05,316Z"/><path class="cls-4" d="M23.14,433.58H346.65V476.4H23.14Z"/><path class="cls-1" d="M184.89,433.58H346.65V476.4H184.89Z"/><path class="cls-4" d="M0,476.4H369.79v54.85H0Z"/><path class="cls-1" d="M184.89,476.4h184.9v54.85H184.89Z"/></svg>